<svg width="89" height="88" viewBox="0 0 89 88" fill="none" xmlns="http://www.w3.org/2000/svg">
<rect x="0.5" width="88" height="88" rx="9.42857" fill="#E5F9FD"/>
<path d="M31.1667 41.333H36.5001V46.6663H31.1667V41.333ZM31.1667 51.9997H36.5001V57.333H31.1667V51.9997ZM41.8334 41.333H47.1667V46.6663H41.8334V41.333ZM41.8334 51.9997H47.1667V57.333H41.8334V51.9997ZM52.5001 41.333H57.8334V46.6663H52.5001V41.333ZM52.5001 51.9997H57.8334V57.333H52.5001V51.9997Z" fill="#03C3EC"/>
<path d="M25.8333 70.6663H63.1667C66.108 70.6663 68.5 68.2743 68.5 65.333V27.9997C68.5 25.0583 66.108 22.6663 63.1667 22.6663H57.8333V17.333H52.5V22.6663H36.5V17.333H31.1667V22.6663H25.8333C22.892 22.6663 20.5 25.0583 20.5 27.9997V65.333C20.5 68.2743 22.892 70.6663 25.8333 70.6663ZM63.1667 33.333L63.1693 65.333H25.8333V33.333H63.1667Z" fill="#03C3EC"/>
</svg>
