<svg width="56" height="56" viewBox="0 0 56 56" fill="none" xmlns="http://www.w3.org/2000/svg">
<rect width="56" height="56" rx="6" fill="#E5F9FD"/>
<path d="M33.0001 26.3333V26.35M34.6668 13V19.3383C36.7295 20.5319 38.2999 22.4207 39.0968 24.6667H41.3318C41.7738 24.6667 42.1977 24.8423 42.5103 25.1548C42.8228 25.4674 42.9984 25.8913 42.9984 26.3333V29.6667C42.9984 30.1087 42.8228 30.5326 42.5103 30.8452C42.1977 31.1577 41.7738 31.3333 41.3318 31.3333H39.0951C38.5344 32.9173 37.5841 34.3347 36.3318 35.455V38.8333C36.3318 39.4964 36.0684 40.1323 35.5995 40.6011C35.1307 41.0699 34.4948 41.3333 33.8318 41.3333C33.1687 41.3333 32.5328 41.0699 32.064 40.6011C31.5952 40.1323 31.3318 39.4964 31.3318 38.8333V37.8617C30.781 37.9539 30.2235 38.0002 29.6651 38H22.9984C22.44 38.0002 21.8825 37.9539 21.3318 37.8617V38.8333C21.3318 39.4964 21.0684 40.1323 20.5995 40.6011C20.1307 41.0699 19.4948 41.3333 18.8318 41.3333C18.1687 41.3333 17.5328 41.0699 17.064 40.6011C16.5952 40.1323 16.3318 39.4964 16.3318 38.8333V35.455C14.8217 34.1049 13.7572 32.3281 13.2792 30.3598C12.8013 28.3914 12.9323 26.3243 13.655 24.432C14.3777 22.5398 15.658 20.9116 17.3265 19.763C18.995 18.6145 20.9729 17.9997 22.9984 18H27.1651L34.6668 13Z" stroke="#03C3EC" stroke-width="3.33333" stroke-linecap="round" stroke-linejoin="round"/>
</svg>
